# xmcd
#
# Track frame offsets:
#	150
#	24267
#	38542
#	56055
#	72257
#	109770
#	131225
#	145972
#	169520
#	197680
#	211085
#	235037
#	259740
#	273840
#
# Disc length: 3900
#
# Revision: 2
# Processed by: cddbd v1.5.1PL0 Copyright (c) Steve Scherf et al.
# Submitted via: CDex 1.50beta10
# Normalized: r0:DSETVAR2,TDELIM( - ),TSWAP
#
DISCID=c00f3a0e
DTITLE=Various Artist - HMV Jazz - The Big Band Collection
DYEAR=1999
DGENRE=Jazz
TTITLE0=Duke Ellington and His Orchestra - Take The 'A' Train
TTITLE1=The Count Basie Orchestra - Jumpin' At The Woodside
TTITLE2=Benny Goodman - One O'Clock Jump
TTITLE3=The Count Basie Orchestra - Splanky
TTITLE4=The Carnegie Hall Jazz Band - In The Mood
TTITLE5=Sidney Bechet - St Louis Blues
TTITLE6=Artie Shaw - Begin The Beguine
TTITLE7=Gil Evans - Manteca
TTITLE8=Stanley Turrentine - River's Invitation
TTITLE9=Woody Herman - At The Woodchoppers Ball
TTITLE10=Don Ellis - Freedom Jazz Dance
TTITLE11=The Buddy Rich Big Band - Mercy Mercy Mercy
TTITLE12=Stan Kenton - Tuxedo Junction
TTITLE13=Chet Baker - Chet
EXTD=YEAR: 1999
EXTT0=
EXTT1=
EXTT2=
EXTT3=
EXTT4=
EXTT5=
EXTT6=
EXTT7=
EXTT8=
EXTT9=
EXTT10=
EXTT11=
EXTT12=
EXTT13=
PLAYORDER=
